<svg xmlns="http://www.w3.org/2000/svg" viewBox="0 0 256 256"><path d="M128 29Q103 24 108 17Q118 13 128 24Q140 13 148 18Q149 25 128 29Z" fill="currentColor" /><path d="M35 107C37 57 74 27 128 27C181 27 217 58 222 107L216 134Q126 105 40 133Z" fill="currentColor" /><path d="M34 111Q24 118 27 151L42 160L54 124M221 111Q232 122 228 151L215 160L203 124" fill="currentColor" /><path d="M69 43Q58 69 59 104M107 28Q100 61 102 98M149 29Q156 62 155 98M183 43Q196 71 196 105" fill="none" stroke="currentColor" stroke-width="2.5" stroke-opacity="0.25"/><path d="M37 112Q127 80 221 113Q233 121 225 130L211 134Q128 106 47 134Q31 135 29 126Z" fill="currentColor" /><path d="M46 134Q128 106 212 134" fill="none" stroke="currentColor" stroke-width="4" stroke-opacity="0.42"/></svg>
