<svg xmlns="http://www.w3.org/2000/svg" viewBox="0 0 256 256"><path d="M25 106C36 78 72 43 122 34C166 26 202 42 216 72Q225 89 220 109L196 121H44Z" fill="currentColor"/><path d="M84 48Q98 57 106 96" fill="none" stroke="currentColor" stroke-width="2.6" stroke-opacity="0.3" stroke-linecap="round" stroke-linejoin="round"/><path d="M29 106Q111 87 204 100L234 114Q244 122 233 131Q222 139 199 131Q121 113 46 139Q31 142 26 132Z" fill="currentColor"/><path d="M29 106Q111 87 204 100" fill="none" stroke="currentColor" stroke-width="2.6" stroke-opacity="0.3" stroke-linecap="round" stroke-linejoin="round"/><path d="M46 139Q121 113 199 131Q222 139 233 131" fill="none" stroke="currentColor" stroke-width="5.2" stroke-opacity="0.55" stroke-linecap="round" stroke-linejoin="round"/></svg>
