<svg xmlns="http://www.w3.org/2000/svg" viewBox="0 0 256 256"><path d="M32 119L34 99C38 59 69 30 110 27H146C188 30 219 61 222 101L224 119Z" fill="currentColor"/><path d="M109 36V26Q109 20 117 20H139Q147 20 147 26V36" fill="currentColor" stroke="currentColor" stroke-width="2" stroke-opacity="0.35"/><path d="M68 43Q51 71 54 108M187 44Q203 74 202 108" fill="none" stroke="currentColor" stroke-width="7" stroke-opacity="0.42" stroke-linecap="round"/><path d="M72 42Q55 72 58 106M183 42Q199 72 198 106" fill="none" stroke="#ffffff" stroke-width="4" stroke-opacity="0.27" stroke-linecap="round"/><path d="M111 29L108 108M145 29L148 108" fill="none" stroke="currentColor" stroke-width="2.3" stroke-opacity="0.28" stroke-linecap="round"/><path d="M28 115Q128 97 228 115Q235 118 236 127Q235 136 225 135Q128 116 31 136Q20 137 20 128Q21 119 28 115Z" fill="currentColor"/><path d="M27 131Q128 111 229 131" fill="none" stroke="currentColor" stroke-width="3.4" stroke-opacity="0.52" stroke-linecap="round"/><path d="M40 117V106Q40 102 46 102H55Q61 102 61 107V113M196 113V107Q196 102 202 102H211Q217 102 217 107V117" fill="currentColor" stroke="currentColor" stroke-width="1.7" stroke-opacity="0.4"/><path d="M32 115Q128 98 224 115" fill="none" stroke="#ffffff" stroke-width="1.3" stroke-opacity="0.25" stroke-linecap="round"/></svg>
