<svg xmlns="http://www.w3.org/2000/svg" viewBox="0 0 256 256" width="256" height="256" role="img"><title>research bot avatar — idle</title><metadata>lucide-static@1.49.0
ISC License

Copyright (c) 2026 Lucide Icons and Contributors

Permission to use, copy, modify, and/or distribute this software for any
purpose with or without fee is hereby granted, provided that the above
copyright notice and this permission notice appear in all copies.

THE SOFTWARE IS PROVIDED &quot;AS IS&quot; AND THE AUTHOR DISCLAIMS ALL WARRANTIES
WITH REGARD TO THIS SOFTWARE INCLUDING ALL IMPLIED WARRANTIES OF
MERCHANTABILITY AND FITNESS. IN NO EVENT SHALL THE AUTHOR BE LIABLE FOR
ANY SPECIAL, DIRECT, INDIRECT, OR CONSEQUENTIAL DAMAGES OR ANY DAMAGES
WHATSOEVER RESULTING FROM LOSS OF USE, DATA OR PROFITS, WHETHER IN AN
ACTION OF CONTRACT, NEGLIGENCE OR OTHER TORTIOUS ACTION, ARISING OUT OF
OR IN CONNECTION WITH THE USE OR PERFORMANCE OF THIS SOFTWARE.

---

The following Lucide icons are derived from the Feather project:

airplay, alert-circle, alert-octagon, alert-triangle, aperture, arrow-down-circle, arrow-down-left, arrow-down-right, arrow-down, arrow-left-circle, arrow-left, arrow-right-circle, arrow-right, arrow-up-circle, arrow-up-left, arrow-up-right, arrow-up, at-sign, calendar, cast, check, chevron-down, chevron-left, chevron-right, chevron-up, chevrons-down, chevrons-left, chevrons-right, chevrons-up, circle, clipboard, clock, code, columns, command, compass, corner-down-left, corner-down-right, corner-left-down, corner-left-up, corner-right-down, corner-right-up, corner-up-left, corner-up-right, crosshair, database, divide-circle, divide-square, dollar-sign, download, external-link, feather, frown, hash, headphones, help-circle, info, italic, key, layout, life-buoy, link-2, link, loader, lock, log-in, log-out, maximize, meh, minimize, minimize-2, minus-circle, minus-square, minus, monitor, moon, more-horizontal, more-vertical, move, music, navigation-2, navigation, octagon, pause-circle, percent, plus-circle, plus-square, plus, power, radio, rss, search, server, share, shopping-bag, sidebar, smartphone, smile, square, table-2, tablet, target, terminal, trash-2, trash, triangle, tv, type, upload, x-circle, x-octagon, x-square, x, zoom-in, zoom-out

The MIT License (MIT) (for the icons listed above)

Copyright (c) 2013-present Cole Bemis

Permission is hereby granted, free of charge, to any person obtaining a copy
of this software and associated documentation files (the &quot;Software&quot;), to deal
in the Software without restriction, including without limitation the rights
to use, copy, modify, merge, publish, distribute, sublicense, and/or sell
copies of the Software, and to permit persons to whom the Software is
furnished to do so, subject to the following conditions:

The above copyright notice and this permission notice shall be included in all
copies or substantial portions of the Software.

THE SOFTWARE IS PROVIDED &quot;AS IS&quot;, WITHOUT WARRANTY OF ANY KIND, EXPRESS OR
IMPLIED, INCLUDING BUT NOT LIMITED TO THE WARRANTIES OF MERCHANTABILITY,
FITNESS FOR A PARTICULAR PURPOSE AND NONINFRINGEMENT. IN NO EVENT SHALL THE
AUTHORS OR COPYRIGHT HOLDERS BE LIABLE FOR ANY CLAIM, DAMAGES OR OTHER
LIABILITY, WHETHER IN AN ACTION OF CONTRACT, TORT OR OTHERWISE, ARISING FROM,
OUT OF OR IN CONNECTION WITH THE SOFTWARE OR THE USE OR OTHER DEALINGS IN THE
SOFTWARE.
</metadata><defs><clipPath id="avatar-contact-receiver-fringe-hair-sweep-face-round" clipPathUnits="userSpaceOnUse"><path d="M48 124C38 140 36 169 43 191C49 217 70 229 99 229H157C186 229 207 217 213 191C220 169 218 140 208 124C185 105 71 105 48 124Z" fill="#000000"/></clipPath><filter id="avatar-contact-shadow-fringe-hair-sweep-face-round" filterUnits="userSpaceOnUse" x="0" y="0" width="256" height="256" color-interpolation-filters="sRGB"><feGaussianBlur in="SourceAlpha" stdDeviation="1.6"/><feOffset dy="2" result="contact-alpha"/><feFlood flood-color="#201a28" flood-opacity="0.09"/><feComposite in2="contact-alpha" operator="in"/></filter><clipPath id="avatar-contact-receiver-hat-hat-beret-hair-sweep-hair-sweep-back-face-round" clipPathUnits="userSpaceOnUse"><path d="M48 124C38 140 36 169 43 191C49 217 70 229 99 229H157C186 229 207 217 213 191C220 169 218 140 208 124C185 105 71 105 48 124Z" fill="#000000"/><path d="M32 137C30 107 64 86 126 85C184 84 222 103 225 139Q230 165 209 190Q212 169 199 157C180 151 161 139 151 122Q150 138 162 153L145 149Q148 158 156 164C129 166 105 151 92 137Q90 149 81 158L80 149Q69 167 53 181L48 194Q37 179 32 160Z" fill="#000000"/><path d="M31 136C14 146 16 174 27 188Q28 203 52 206C87 222 173 224 199 210Q228 208 232 190L229 181C239 160 236 145 226 138C228 99 186 82 128 83C72 83 41 103 31 136Z" fill="#000000"/><path d="M31 147Q26 175 42 193M225 150Q231 177 216 198" fill="none" stroke="#000000" stroke-width="2" stroke-opacity="0.23"/></clipPath><filter id="avatar-contact-shadow-hat-hat-beret-hair-sweep-hair-sweep-back-face-round" filterUnits="userSpaceOnUse" x="0" y="0" width="256" height="256" color-interpolation-filters="sRGB"><feGaussianBlur in="SourceAlpha" stdDeviation="2.4"/><feOffset dy="4" result="contact-alpha"/><feFlood flood-color="#201a28" flood-opacity="0.19"/><feComposite in2="contact-alpha" operator="in"/></filter><filter id="avatar-soft-material-v1" x="-2%" y="-2%" width="104%" height="104%" color-interpolation-filters="sRGB"><feTurbulence type="fractalNoise" baseFrequency="0.08" numOctaves="3" seed="17" result="grain"/><feColorMatrix in="grain" type="matrix" values="0.2126 0.7152 0.0722 0 0 0.2126 0.7152 0.0722 0 0 0.2126 0.7152 0.0722 0 0 0 0 0 0.03 0" result="faint-grain"/><feComposite in="faint-grain" in2="SourceGraphic" operator="in" result="clipped-grain"/><feBlend in="SourceGraphic" in2="clipped-grain" mode="soft-light" result="material"/><feGaussianBlur in="material" stdDeviation="0.16"/></filter><linearGradient id="avatar-face-faf5ee" x1="0%" y1="0%" x2="85%" y2="100%"><stop offset="0%" stop-color="#fbf8f2"/><stop offset="52%" stop-color="#faf5ee"/><stop offset="100%" stop-color="#f8f3ec"/></linearGradient><linearGradient id="avatar-hair-87d8e2" x1="0%" y1="0%" x2="85%" y2="100%"><stop offset="0%" stop-color="#95dde5"/><stop offset="52%" stop-color="#87d8e2"/><stop offset="100%" stop-color="#82d0da"/></linearGradient><linearGradient id="avatar-hat-334b70" x1="0%" y1="0%" x2="85%" y2="100%"><stop offset="0%" stop-color="#4b6181"/><stop offset="52%" stop-color="#334b70"/><stop offset="100%" stop-color="#31486c"/></linearGradient><linearGradient id="avatar-eyes-171918" x1="0%" y1="0%" x2="85%" y2="100%"><stop offset="0%" stop-color="#333534"/><stop offset="52%" stop-color="#171918"/><stop offset="100%" stop-color="#161817"/></linearGradient><linearGradient id="avatar-badge-ffffff" x1="0%" y1="0%" x2="85%" y2="100%"><stop offset="0%" stop-color="#ffffff"/><stop offset="52%" stop-color="#ffffff"/><stop offset="100%" stop-color="#f6f6f6"/></linearGradient></defs><g color="#69a8b0" filter="url(#avatar-soft-material-v1)"><path d="M31 136C14 146 16 174 27 188Q28 203 52 206C87 222 173 224 199 210Q228 208 232 190L229 181C239 160 236 145 226 138C228 99 186 82 128 83C72 83 41 103 31 136Z" fill="url(#avatar-hair-87d8e2)"/><path d="M31 147Q26 175 42 193M225 150Q231 177 216 198" fill="none" stroke="#69a8b0" stroke-width="2" stroke-opacity="0.23"/></g><g color="url(#avatar-face-faf5ee)"><path d="M48 124C38 140 36 169 43 191C49 217 70 229 99 229H157C186 229 207 217 213 191C220 169 218 140 208 124C185 105 71 105 48 124Z" fill="url(#avatar-face-faf5ee)"/></g><g data-layer="contact-shadow-fringe-hair-sweep-face-round" clip-path="url(#avatar-contact-receiver-fringe-hair-sweep-face-round)"><g filter="url(#avatar-contact-shadow-fringe-hair-sweep-face-round)"><g color="#000000"><path d="M32 137C30 107 64 86 126 85C184 84 222 103 225 139Q230 165 209 190Q212 169 199 157C180 151 161 139 151 122Q150 138 162 153L145 149Q148 158 156 164C129 166 105 151 92 137Q90 149 81 158L80 149Q69 167 53 181L48 194Q37 179 32 160Z" fill="#000000"/></g></g></g><g color="#69a8b0" filter="url(#avatar-soft-material-v1)"><path d="M32 137C30 107 64 86 126 85C184 84 222 103 225 139Q230 165 209 190Q212 169 199 157C180 151 161 139 151 122Q150 138 162 153L145 149Q148 158 156 164C129 166 105 151 92 137Q90 149 81 158L80 149Q69 167 53 181L48 194Q37 179 32 160Z" fill="url(#avatar-hair-87d8e2)"/></g><g data-layer="contact-shadow-hat-hat-beret-hair-sweep-hair-sweep-back-face-round" clip-path="url(#avatar-contact-receiver-hat-hat-beret-hair-sweep-hair-sweep-back-face-round)"><g filter="url(#avatar-contact-shadow-hat-hat-beret-hair-sweep-hair-sweep-back-face-round)"><g color="#000000"><path d="M76 40L73 30Q72 24 78 23Q84 22 85 29L87 37Z" fill="#000000"/><path d="M29 116C13 106 18 89 32 76C61 48 119 22 162 23C204 20 225 39 225 63C228 83 215 101 195 112Q107 83 44 133Q28 134 29 116Z" fill="#000000"/><path d="M32 115Q96 81 174 101Q188 103 200 109Q154 101 112 111Q65 117 44 135Q30 138 26 128Z" fill="#000000"/><path d="M32 115Q110 80 198 110" fill="none" stroke="#000000" stroke-width="3.5" stroke-linecap="round" stroke-linejoin="round"/></g></g></g><g color="#283b57" filter="url(#avatar-soft-material-v1)"><path d="M76 40L73 30Q72 24 78 23Q84 22 85 29L87 37Z" fill="url(#avatar-hat-334b70)"/><path d="M29 116C13 106 18 89 32 76C61 48 119 22 162 23C204 20 225 39 225 63C228 83 215 101 195 112Q107 83 44 133Q28 134 29 116Z" fill="url(#avatar-hat-334b70)"/><path d="M32 115Q96 81 174 101Q188 103 200 109Q154 101 112 111Q65 117 44 135Q30 138 26 128Z" fill="url(#avatar-hat-334b70)"/><path d="M32 115Q110 80 198 110" fill="none" stroke="#283b57" stroke-width="3.5" stroke-linecap="round" stroke-linejoin="round"/></g><g data-layer="hat-badge" transform="translate(176 65) rotate(12) scale(0.85) translate(-128 -64)"><g transform="translate(128 64) scale(0.21875) translate(-128 -128)"><g color="#f8f5ed"><path d="M11.017 2.814a1 1 0 0 1 1.966 0l1.051 5.558a2 2 0 0 0 1.594 1.594l5.558 1.051a1 1 0 0 1 0 1.966l-5.558 1.051a2 2 0 0 0-1.594 1.594l-1.051 5.558a1 1 0 0 1-1.966 0l-1.051-5.558a2 2 0 0 0-1.594-1.594l-5.558-1.051a1 1 0 0 1 0-1.966l5.558-1.051a2 2 0 0 0 1.594-1.594z" fill="none" stroke="#f8f5ed" stroke-width="2.6" stroke-linecap="round" stroke-linejoin="round" transform="scale(10.666666666666666)"/><path d="M20 2v4" fill="none" stroke="#f8f5ed" stroke-width="2.6" stroke-linecap="round" stroke-linejoin="round" transform="scale(10.666666666666666)"/><path d="M22 4h-4" fill="none" stroke="#f8f5ed" stroke-width="2.6" stroke-linecap="round" stroke-linejoin="round" transform="scale(10.666666666666666)"/><circle cx="4" cy="20" r="2" fill="none" stroke="#f8f5ed" stroke-width="2.6" stroke-linecap="round" stroke-linejoin="round" transform="scale(10.666666666666666)"/></g></g></g><g data-layer="state" data-state="idle"><rect x="86" y="164" width="19" height="42" rx="9.5" fill="url(#avatar-eyes-171918)"/><rect x="154" y="164" width="19" height="42" rx="9.5" fill="url(#avatar-eyes-171918)"/></g></svg>