<svg xmlns="http://www.w3.org/2000/svg" viewBox="0 0 256 256" width="256" height="256" role="img"><title>docs bot avatar — idle</title><metadata>lucide-static@1.49.0
ISC License

Copyright (c) 2026 Lucide Icons and Contributors

Permission to use, copy, modify, and/or distribute this software for any
purpose with or without fee is hereby granted, provided that the above
copyright notice and this permission notice appear in all copies.

THE SOFTWARE IS PROVIDED &quot;AS IS&quot; AND THE AUTHOR DISCLAIMS ALL WARRANTIES
WITH REGARD TO THIS SOFTWARE INCLUDING ALL IMPLIED WARRANTIES OF
MERCHANTABILITY AND FITNESS. IN NO EVENT SHALL THE AUTHOR BE LIABLE FOR
ANY SPECIAL, DIRECT, INDIRECT, OR CONSEQUENTIAL DAMAGES OR ANY DAMAGES
WHATSOEVER RESULTING FROM LOSS OF USE, DATA OR PROFITS, WHETHER IN AN
ACTION OF CONTRACT, NEGLIGENCE OR OTHER TORTIOUS ACTION, ARISING OUT OF
OR IN CONNECTION WITH THE USE OR PERFORMANCE OF THIS SOFTWARE.

---

The following Lucide icons are derived from the Feather project:

airplay, alert-circle, alert-octagon, alert-triangle, aperture, arrow-down-circle, arrow-down-left, arrow-down-right, arrow-down, arrow-left-circle, arrow-left, arrow-right-circle, arrow-right, arrow-up-circle, arrow-up-left, arrow-up-right, arrow-up, at-sign, calendar, cast, check, chevron-down, chevron-left, chevron-right, chevron-up, chevrons-down, chevrons-left, chevrons-right, chevrons-up, circle, clipboard, clock, code, columns, command, compass, corner-down-left, corner-down-right, corner-left-down, corner-left-up, corner-right-down, corner-right-up, corner-up-left, corner-up-right, crosshair, database, divide-circle, divide-square, dollar-sign, download, external-link, feather, frown, hash, headphones, help-circle, info, italic, key, layout, life-buoy, link-2, link, loader, lock, log-in, log-out, maximize, meh, minimize, minimize-2, minus-circle, minus-square, minus, monitor, moon, more-horizontal, more-vertical, move, music, navigation-2, navigation, octagon, pause-circle, percent, plus-circle, plus-square, plus, power, radio, rss, search, server, share, shopping-bag, sidebar, smartphone, smile, square, table-2, tablet, target, terminal, trash-2, trash, triangle, tv, type, upload, x-circle, x-octagon, x-square, x, zoom-in, zoom-out

The MIT License (MIT) (for the icons listed above)

Copyright (c) 2013-present Cole Bemis

Permission is hereby granted, free of charge, to any person obtaining a copy
of this software and associated documentation files (the &quot;Software&quot;), to deal
in the Software without restriction, including without limitation the rights
to use, copy, modify, merge, publish, distribute, sublicense, and/or sell
copies of the Software, and to permit persons to whom the Software is
furnished to do so, subject to the following conditions:

The above copyright notice and this permission notice shall be included in all
copies or substantial portions of the Software.

THE SOFTWARE IS PROVIDED &quot;AS IS&quot;, WITHOUT WARRANTY OF ANY KIND, EXPRESS OR
IMPLIED, INCLUDING BUT NOT LIMITED TO THE WARRANTIES OF MERCHANTABILITY,
FITNESS FOR A PARTICULAR PURPOSE AND NONINFRINGEMENT. IN NO EVENT SHALL THE
AUTHORS OR COPYRIGHT HOLDERS BE LIABLE FOR ANY CLAIM, DAMAGES OR OTHER
LIABILITY, WHETHER IN AN ACTION OF CONTRACT, TORT OR OTHERWISE, ARISING FROM,
OUT OF OR IN CONNECTION WITH THE SOFTWARE OR THE USE OR OTHER DEALINGS IN THE
SOFTWARE.
</metadata><defs><clipPath id="avatar-contact-receiver-fringe-hair-crop-face-round" clipPathUnits="userSpaceOnUse"><path d="M48 124C38 140 36 169 43 191C49 217 70 229 99 229H157C186 229 207 217 213 191C220 169 218 140 208 124C185 105 71 105 48 124Z" fill="#000000"/></clipPath><filter id="avatar-contact-shadow-fringe-hair-crop-face-round" filterUnits="userSpaceOnUse" x="0" y="0" width="256" height="256" color-interpolation-filters="sRGB"><feGaussianBlur in="SourceAlpha" stdDeviation="1.6"/><feOffset dy="2" result="contact-alpha"/><feFlood flood-color="#201a28" flood-opacity="0.09"/><feComposite in2="contact-alpha" operator="in"/></filter><clipPath id="avatar-contact-receiver-hat-hat-cap-hair-crop-hair-crop-back-face-round" clipPathUnits="userSpaceOnUse"><path d="M48 124C38 140 36 169 43 191C49 217 70 229 99 229H157C186 229 207 217 213 191C220 169 218 140 208 124C185 105 71 105 48 124Z" fill="#000000"/><path d="M30 141C29 103 68 83 127 83C184 83 224 102 226 141Q230 169 212 190Q216 169 204 149L187 147L182 130L178 147L155 145L151 124L147 145L121 144L117 125L113 145L89 146L85 130L81 147L59 150Q47 169 49 194Q32 184 30 141Z" fill="#000000"/><path d="M32 134C10 140 12 177 29 190Q38 199 52 200H203C220 199 235 186 236 167Q239 142 226 134C216 92 181 84 128 84C75 84 39 94 32 134Z" fill="#000000"/><path d="M32 144Q24 175 42 192M224 144Q233 175 217 191" fill="none" stroke="#000000" stroke-width="2.1" stroke-opacity="0.25"/></clipPath><filter id="avatar-contact-shadow-hat-hat-cap-hair-crop-hair-crop-back-face-round" filterUnits="userSpaceOnUse" x="0" y="0" width="256" height="256" color-interpolation-filters="sRGB"><feGaussianBlur in="SourceAlpha" stdDeviation="2.4"/><feOffset dy="4" result="contact-alpha"/><feFlood flood-color="#201a28" flood-opacity="0.19"/><feComposite in2="contact-alpha" operator="in"/></filter><filter id="avatar-soft-material-v1" x="-2%" y="-2%" width="104%" height="104%" color-interpolation-filters="sRGB"><feTurbulence type="fractalNoise" baseFrequency="0.08" numOctaves="3" seed="17" result="grain"/><feColorMatrix in="grain" type="matrix" values="0.2126 0.7152 0.0722 0 0 0.2126 0.7152 0.0722 0 0 0.2126 0.7152 0.0722 0 0 0 0 0 0.03 0" result="faint-grain"/><feComposite in="faint-grain" in2="SourceGraphic" operator="in" result="clipped-grain"/><feBlend in="SourceGraphic" in2="clipped-grain" mode="soft-light" result="material"/><feGaussianBlur in="material" stdDeviation="0.16"/></filter><linearGradient id="avatar-face-faf5ee" x1="0%" y1="0%" x2="85%" y2="100%"><stop offset="0%" stop-color="#fbf8f2"/><stop offset="52%" stop-color="#faf5ee"/><stop offset="100%" stop-color="#f8f3ec"/></linearGradient><linearGradient id="avatar-hair-ffd16e" x1="0%" y1="0%" x2="85%" y2="100%"><stop offset="0%" stop-color="#ffd77f"/><stop offset="52%" stop-color="#ffd16e"/><stop offset="100%" stop-color="#f6ca6a"/></linearGradient><linearGradient id="avatar-hat-dedbd2" x1="0%" y1="0%" x2="85%" y2="100%"><stop offset="0%" stop-color="#e2dfd7"/><stop offset="52%" stop-color="#dedbd2"/><stop offset="100%" stop-color="#d6d3cb"/></linearGradient><linearGradient id="avatar-eyes-171918" x1="0%" y1="0%" x2="85%" y2="100%"><stop offset="0%" stop-color="#333534"/><stop offset="52%" stop-color="#171918"/><stop offset="100%" stop-color="#161817"/></linearGradient><linearGradient id="avatar-badge-ffffff" x1="0%" y1="0%" x2="85%" y2="100%"><stop offset="0%" stop-color="#ffffff"/><stop offset="52%" stop-color="#ffffff"/><stop offset="100%" stop-color="#f6f6f6"/></linearGradient></defs><g color="#c7a356" filter="url(#avatar-soft-material-v1)"><path d="M32 134C10 140 12 177 29 190Q38 199 52 200H203C220 199 235 186 236 167Q239 142 226 134C216 92 181 84 128 84C75 84 39 94 32 134Z" fill="url(#avatar-hair-ffd16e)"/><path d="M32 144Q24 175 42 192M224 144Q233 175 217 191" fill="none" stroke="#c7a356" stroke-width="2.1" stroke-opacity="0.25"/></g><g color="url(#avatar-face-faf5ee)"><path d="M48 124C38 140 36 169 43 191C49 217 70 229 99 229H157C186 229 207 217 213 191C220 169 218 140 208 124C185 105 71 105 48 124Z" fill="url(#avatar-face-faf5ee)"/></g><g data-layer="contact-shadow-fringe-hair-crop-face-round" clip-path="url(#avatar-contact-receiver-fringe-hair-crop-face-round)"><g filter="url(#avatar-contact-shadow-fringe-hair-crop-face-round)"><g color="#000000"><path d="M30 141C29 103 68 83 127 83C184 83 224 102 226 141Q230 169 212 190Q216 169 204 149L187 147L182 130L178 147L155 145L151 124L147 145L121 144L117 125L113 145L89 146L85 130L81 147L59 150Q47 169 49 194Q32 184 30 141Z" fill="#000000"/></g></g></g><g color="#c7a356" filter="url(#avatar-soft-material-v1)"><path d="M30 141C29 103 68 83 127 83C184 83 224 102 226 141Q230 169 212 190Q216 169 204 149L187 147L182 130L178 147L155 145L151 124L147 145L121 144L117 125L113 145L89 146L85 130L81 147L59 150Q47 169 49 194Q32 184 30 141Z" fill="url(#avatar-hair-ffd16e)"/></g><g data-layer="contact-shadow-hat-hat-cap-hair-crop-hair-crop-back-face-round" clip-path="url(#avatar-contact-receiver-hat-hat-cap-hair-crop-hair-crop-back-face-round)"><g filter="url(#avatar-contact-shadow-hat-hat-cap-hair-crop-hair-crop-back-face-round)"><g color="#000000"><path d="M31 114C34 55 66 27 128 27C190 27 221 56 226 114Q128 86 31 114Z" fill="#000000"/><path d="M76 38Q65 60 65 100M105 29Q99 57 99 93M152 29Q158 57 158 94M181 38Q192 60 193 100" fill="none" stroke="#000000" stroke-width="2.6" stroke-opacity="0.21"/><path d="M32 112Q128 77 224 112Q230 116 232 124C234 131 225 138 213 134Q127 96 44 137C31 142 20 132 24 126Z" fill="#000000"/><path d="M44 137Q127 96 213 134" fill="none" stroke="#000000" stroke-width="5.2" stroke-opacity="0.55"/><path d="M32 112Q128 77 224 112" fill="none" stroke="#000000" stroke-width="2.9" stroke-opacity="0.4"/></g></g></g><g color="#adaba4" filter="url(#avatar-soft-material-v1)"><path d="M31 114C34 55 66 27 128 27C190 27 221 56 226 114Q128 86 31 114Z" fill="url(#avatar-hat-dedbd2)"/><path d="M76 38Q65 60 65 100M105 29Q99 57 99 93M152 29Q158 57 158 94M181 38Q192 60 193 100" fill="none" stroke="#adaba4" stroke-width="2.6" stroke-opacity="0.21"/><path d="M32 112Q128 77 224 112Q230 116 232 124C234 131 225 138 213 134Q127 96 44 137C31 142 20 132 24 126Z" fill="url(#avatar-hat-dedbd2)"/><path d="M44 137Q127 96 213 134" fill="none" stroke="#adaba4" stroke-width="5.2" stroke-opacity="0.55"/><path d="M32 112Q128 77 224 112" fill="none" stroke="#adaba4" stroke-width="2.9" stroke-opacity="0.4"/></g><g data-layer="hat-badge" transform="translate(128 66) rotate(0) scale(0.84) translate(-128 -64)"><g transform="translate(128 64) scale(0.21875) translate(-128 -128)"><g color="#171918"><path d="M6 22a2 2 0 0 1-2-2V4a2 2 0 0 1 2-2h8a2.4 2.4 0 0 1 1.704.706l3.588 3.588A2.4 2.4 0 0 1 20 8v12a2 2 0 0 1-2 2z" fill="none" stroke="#171918" stroke-width="2.6" stroke-linecap="round" stroke-linejoin="round" transform="scale(10.666666666666666)"/><path d="M14 2v5a1 1 0 0 0 1 1h5" fill="none" stroke="#171918" stroke-width="2.6" stroke-linecap="round" stroke-linejoin="round" transform="scale(10.666666666666666)"/><path d="M10 9H8" fill="none" stroke="#171918" stroke-width="2.6" stroke-linecap="round" stroke-linejoin="round" transform="scale(10.666666666666666)"/><path d="M16 13H8" fill="none" stroke="#171918" stroke-width="2.6" stroke-linecap="round" stroke-linejoin="round" transform="scale(10.666666666666666)"/><path d="M16 17H8" fill="none" stroke="#171918" stroke-width="2.6" stroke-linecap="round" stroke-linejoin="round" transform="scale(10.666666666666666)"/></g></g></g><g data-layer="state" data-state="idle"><rect x="86" y="164" width="19" height="42" rx="9.5" fill="url(#avatar-eyes-171918)"/><rect x="154" y="164" width="19" height="42" rx="9.5" fill="url(#avatar-eyes-171918)"/></g></svg>